<svg width="187" height="42" viewBox="0 0 187 42" fill="none" xmlns="http://www.w3.org/2000/svg">
<path opacity="0.5" d="M40.0652 2.25671L30.2601 36.9917C30.2102 37.1494 30.0108 37.1967 29.8945 37.0863L23.3301 30.8583L28.2492 13.4514C28.2991 13.2937 28.1495 13.1518 27.9833 13.1991L9.63617 17.8662L3.10498 11.6697C2.98865 11.5593 3.03851 11.3701 3.20469 11.3228L39.7993 2.00444C39.9655 1.97291 40.115 2.11481 40.0652 2.25671Z" fill="#F2F2F2"/>
<path opacity="0.5" d="M23.3297 30.858L20.8037 39.8452C20.7538 40.0029 20.5544 40.0502 20.4381 39.9398L0.0634003 20.6251C-0.0529313 20.5147 -0.00307518 20.3255 0.163113 20.2782L9.63583 17.8658L23.3297 30.858Z" fill="#F2F2F2"/>
<path d="M28.2484 13.4511L23.3292 30.858L9.63533 17.8659L27.9825 13.1988C28.1487 13.1515 28.2982 13.2934 28.2484 13.4511Z" fill="#F2F2F2"/>
<path d="M64.8107 21.5171H60.1384L60.1134 18.9436H64.0362C64.7274 18.9436 65.2938 18.8561 65.7352 18.6812C66.1766 18.498 66.5056 18.2356 66.7221 17.8942C66.947 17.5444 67.0594 17.1196 67.0594 16.6199C67.0594 16.0535 66.9512 15.5955 66.7346 15.2457C66.5264 14.8959 66.1974 14.6419 65.7477 14.4836C65.3063 14.3254 64.7358 14.2462 64.0362 14.2462H61.4377V29.5H57.6898V11.3104H64.0362C65.0939 11.3104 66.0392 11.4104 66.8721 11.6103C67.7132 11.8101 68.4253 12.1141 69.0083 12.5222C69.5913 12.9303 70.0369 13.4467 70.3451 14.0713C70.6532 14.6877 70.8073 15.4206 70.8073 16.2701C70.8073 17.0197 70.6366 17.7109 70.2951 18.3439C69.9619 18.9769 69.4331 19.4932 68.7085 19.893C67.9922 20.2928 67.0553 20.5135 65.8976 20.5551L64.8107 21.5171ZM64.6483 29.5H59.114L60.5757 26.5767H64.6483C65.3063 26.5767 65.8435 26.4726 66.2599 26.2644C66.6763 26.0478 66.9845 25.7563 67.1844 25.3899C67.3843 25.0234 67.4842 24.6028 67.4842 24.1281C67.4842 23.5951 67.3926 23.1328 67.2094 22.7414C67.0345 22.3499 66.7513 22.0501 66.3598 21.8419C65.9684 21.6253 65.452 21.5171 64.8107 21.5171H61.2003L61.2253 18.9436H65.7227L66.5847 19.9555C67.6924 19.9388 68.5836 20.1345 69.2582 20.5426C69.9411 20.9424 70.4367 21.4629 70.7448 22.1042C71.0613 22.7455 71.2196 23.4326 71.2196 24.1656C71.2196 25.3316 70.9655 26.3143 70.4575 27.1139C69.9495 27.9051 69.204 28.5006 68.2213 28.9003C67.2468 29.3001 66.0559 29.5 64.6483 29.5ZM77.6034 10.311V29.5H73.993V10.311H77.6034ZM88.5721 26.2644V15.9828H92.17V29.5H88.7845L88.5721 26.2644ZM88.9719 23.4909L90.0338 23.466C90.0338 24.3654 89.9297 25.2025 89.7214 25.977C89.5132 26.7432 89.2009 27.4095 88.7845 27.9759C88.3681 28.5339 87.8434 28.9711 87.2104 29.2876C86.5774 29.5958 85.832 29.7499 84.9742 29.7499C84.3162 29.7499 83.7082 29.6582 83.1502 29.475C82.6005 29.2835 82.1258 28.9878 81.726 28.588C81.3346 28.1799 81.0264 27.6594 80.8016 27.0264C80.585 26.3851 80.4767 25.6147 80.4767 24.7152V15.9828H84.0747V24.7402C84.0747 25.14 84.1205 25.4773 84.2121 25.7521C84.312 26.027 84.4495 26.2519 84.6244 26.4268C84.7993 26.6017 85.0033 26.7266 85.2365 26.8015C85.478 26.8765 85.7446 26.914 86.0361 26.914C86.7773 26.914 87.3603 26.7641 87.7851 26.4642C88.2181 26.1644 88.5221 25.7563 88.697 25.2399C88.8803 24.7152 88.9719 24.1322 88.9719 23.4909ZM101.14 29.7499C100.09 29.7499 99.1494 29.5833 98.3165 29.2501C97.4837 28.9087 96.7757 28.4381 96.1927 27.8385C95.6181 27.2388 95.1767 26.5434 94.8685 25.7521C94.5603 24.9526 94.4063 24.1031 94.4063 23.2036V22.7039C94.4063 21.6795 94.552 20.7425 94.8435 19.893C95.135 19.0435 95.5514 18.3064 96.0928 17.6818C96.6425 17.0571 97.3088 16.5782 98.0916 16.2451C98.8745 15.9036 99.7574 15.7329 100.74 15.7329C101.698 15.7329 102.547 15.8911 103.289 16.2076C104.03 16.5241 104.65 16.9739 105.15 17.5569C105.658 18.1398 106.041 18.8394 106.299 19.6556C106.558 20.4635 106.687 21.363 106.687 22.3541V23.8532H95.9429V21.4546H103.151V21.1798C103.151 20.6801 103.06 20.2345 102.876 19.843C102.702 19.4433 102.435 19.1268 102.077 18.8936C101.719 18.6604 101.261 18.5438 100.703 18.5438C100.228 18.5438 99.8198 18.6479 99.4784 18.8561C99.1369 19.0643 98.8579 19.3558 98.6413 19.7306C98.4331 20.1054 98.2749 20.5468 98.1666 21.0548C98.0667 21.5546 98.0167 22.1042 98.0167 22.7039V23.2036C98.0167 23.745 98.0916 24.2447 98.2416 24.7028C98.3998 25.1608 98.6205 25.5564 98.9037 25.8896C99.1952 26.2227 99.545 26.4809 99.9531 26.6641C100.37 26.8474 100.84 26.939 101.365 26.939C102.014 26.939 102.618 26.814 103.176 26.5642C103.743 26.306 104.23 25.9187 104.638 25.4024L106.387 27.3013C106.104 27.7094 105.716 28.1008 105.225 28.4756C104.742 28.8504 104.159 29.1585 103.476 29.4001C102.793 29.6333 102.014 29.7499 101.14 29.7499ZM110.672 11.3104H113.845L118.517 24.6653L123.19 11.3104H126.363L119.792 29.5H117.243L110.672 11.3104ZM108.96 11.3104H112.121L112.696 24.328V29.5H108.96V11.3104ZM124.914 11.3104H128.087V29.5H124.339V24.328L124.914 11.3104ZM130.573 22.8788V22.6164C130.573 21.6253 130.715 20.7134 130.998 19.8805C131.281 19.0393 131.693 18.3106 132.235 17.6943C132.776 17.078 133.442 16.5991 134.233 16.2576C135.025 15.9078 135.932 15.7329 136.957 15.7329C137.981 15.7329 138.893 15.9078 139.693 16.2576C140.492 16.5991 141.163 17.078 141.704 17.6943C142.254 18.3106 142.67 19.0393 142.953 19.8805C143.237 20.7134 143.378 21.6253 143.378 22.6164V22.8788C143.378 23.8616 143.237 24.7735 142.953 25.6147C142.67 26.4476 142.254 27.1763 141.704 27.801C141.163 28.4173 140.496 28.8962 139.705 29.2377C138.914 29.5791 138.006 29.7499 136.982 29.7499C135.957 29.7499 135.045 29.5791 134.246 29.2377C133.455 28.8962 132.784 28.4173 132.235 27.801C131.693 27.1763 131.281 26.4476 130.998 25.6147C130.715 24.7735 130.573 23.8616 130.573 22.8788ZM134.171 22.6164V22.8788C134.171 23.4451 134.221 23.974 134.321 24.4654C134.421 24.9568 134.579 25.3899 134.796 25.7646C135.02 26.1311 135.312 26.4184 135.67 26.6266C136.028 26.8349 136.465 26.939 136.982 26.939C137.482 26.939 137.91 26.8349 138.269 26.6266C138.627 26.4184 138.914 26.1311 139.131 25.7646C139.347 25.3899 139.505 24.9568 139.605 24.4654C139.714 23.974 139.768 23.4451 139.768 22.8788V22.6164C139.768 22.0668 139.714 21.5504 139.605 21.0673C139.505 20.576 139.343 20.1429 139.118 19.7681C138.902 19.385 138.614 19.0851 138.256 18.8686C137.898 18.6521 137.465 18.5438 136.957 18.5438C136.449 18.5438 136.016 18.6521 135.658 18.8686C135.308 19.0851 135.02 19.385 134.796 19.7681C134.579 20.1429 134.421 20.576 134.321 21.0673C134.221 21.5504 134.171 22.0668 134.171 22.6164ZM149.112 18.8686V29.5H145.514V15.9828H148.888L149.112 18.8686ZM148.588 22.2666H147.613C147.613 21.2672 147.742 20.3677 148.001 19.5682C148.259 18.7603 148.621 18.0732 149.087 17.5069C149.554 16.9322 150.108 16.495 150.749 16.1951C151.399 15.887 152.123 15.7329 152.923 15.7329C153.556 15.7329 154.135 15.8245 154.659 16.0077C155.184 16.191 155.634 16.4825 156.008 16.8822C156.392 17.282 156.683 17.8109 156.883 18.4688C157.091 19.1268 157.195 19.9305 157.195 20.8799V29.5H153.572V20.8675C153.572 20.2678 153.489 19.8014 153.322 19.4683C153.156 19.1351 152.91 18.9019 152.585 18.7687C152.269 18.6271 151.877 18.5563 151.411 18.5563C150.928 18.5563 150.507 18.6521 150.149 18.8436C149.799 19.0352 149.508 19.3017 149.275 19.6432C149.05 19.9763 148.879 20.3677 148.763 20.8175C148.646 21.2672 148.588 21.7503 148.588 22.2666ZM166.153 29.7499C165.103 29.7499 164.162 29.5833 163.329 29.2501C162.496 28.9087 161.788 28.4381 161.205 27.8385C160.631 27.2388 160.189 26.5434 159.881 25.7521C159.573 24.9526 159.419 24.1031 159.419 23.2036V22.7039C159.419 21.6795 159.565 20.7425 159.856 19.893C160.148 19.0435 160.564 18.3064 161.106 17.6818C161.655 17.0571 162.321 16.5782 163.104 16.2451C163.887 15.9036 164.77 15.7329 165.753 15.7329C166.711 15.7329 167.56 15.8911 168.301 16.2076C169.043 16.5241 169.663 16.9739 170.163 17.5569C170.671 18.1398 171.054 18.8394 171.312 19.6556C171.57 20.4635 171.699 21.363 171.699 22.3541V23.8532H160.956V21.4546H168.164V21.1798C168.164 20.6801 168.072 20.2345 167.889 19.843C167.714 19.4433 167.448 19.1268 167.09 18.8936C166.731 18.6604 166.273 18.5438 165.715 18.5438C165.241 18.5438 164.833 18.6479 164.491 18.8561C164.15 19.0643 163.871 19.3558 163.654 19.7306C163.446 20.1054 163.288 20.5468 163.179 21.0548C163.079 21.5546 163.029 22.1042 163.029 22.7039V23.2036C163.029 23.745 163.104 24.2447 163.254 24.7028C163.413 25.1608 163.633 25.5564 163.916 25.8896C164.208 26.2227 164.558 26.4809 164.966 26.6641C165.382 26.8474 165.853 26.939 166.377 26.939C167.027 26.939 167.631 26.814 168.189 26.5642C168.755 26.306 169.243 25.9187 169.651 25.4024L171.4 27.3013C171.116 27.7094 170.729 28.1008 170.238 28.4756C169.755 28.8504 169.172 29.1585 168.489 29.4001C167.806 29.6333 167.027 29.7499 166.153 29.7499ZM177.584 27.9759L181.169 15.9828H185.029L179.595 31.5363C179.478 31.8778 179.32 32.2443 179.12 32.6357C178.929 33.0271 178.666 33.3978 178.333 33.7476C178.008 34.1057 177.596 34.3972 177.096 34.6221C176.605 34.8469 176.001 34.9594 175.285 34.9594C174.943 34.9594 174.664 34.9385 174.448 34.8969C174.231 34.8553 173.973 34.797 173.673 34.722V32.086C173.765 32.086 173.861 32.086 173.961 32.086C174.061 32.0943 174.156 32.0985 174.248 32.0985C174.723 32.0985 175.11 32.0444 175.41 31.9361C175.71 31.8278 175.951 31.6613 176.134 31.4364C176.318 31.2198 176.463 30.9367 176.572 30.5869L177.584 27.9759ZM176.084 15.9828L179.02 25.7771L179.532 29.5874L177.084 29.8498L172.224 15.9828H176.084Z" fill="#E1E1E6"/>
</svg>
